# xmcd
#
# Track frame offsets: 
#        150
#        13302
#        24965
#        38135
#        50100
#        63412
#        75155
#        90857
#        109505
#        120375
#        140585
#        150240
#        153427
#
# Disc length: 2234 seconds
#
# Revision: 0
# Processed by: cddbd v1.5.2PL0 Copyright (c) Steve Scherf et al.
# Submitted via: ExactAudioCopy v0.99pb5
#
DISCID=8e08b80d
DTITLE=Nrbq  - All Hopped Up 1977  FLAC
DYEAR=1900
DGENRE=
TTITLE0=Ridin' In My Car
TTITLE1=It Feels Good
TTITLE2=Cecilia
TTITLE3=I Got A Rocket In My Pocket
TTITLE4=Call Him Off, Rogers
TTITLE5=Doctor's Wind
TTITLE6=Things To You
TTITLE7=Help Me Somebody
TTITLE8=Still In School
TTITLE9=Honey Hush
TTITLE10=Queen Talk
TTITLE11=Bonanza
TTITLE12=That's Alright
EXTD=
EXTT0=
EXTT1=
EXTT2=
EXTT3=
EXTT4=
EXTT5=
EXTT6=
EXTT7=
EXTT8=
EXTT9=
EXTT10=
EXTT11=
EXTT12=
PLAYORDER=
